<svg width="4789" height="2970" viewBox="0 0 4789 2970" fill="none" xmlns="http://www.w3.org/2000/svg">
<g>
<path fill-rule="evenodd" clip-rule="evenodd" d="M1881.42 1197.86C2010.31 784.379 1779.73 344.719 1366.39 215.599L1277.12 502.009C1532.28 581.825 1674.59 853.285 1595.02 1108.59C1594.97 1108.74 1594.92 1108.9 1594.87 1109.06L1881.28 1198.34C1881.33 1198.18 1881.38 1198.02 1881.42 1197.86Z" fill="#AFC718"/>
<circle cx="1740.31" cy="1147.21" r="150" transform="rotate(0.641652 1740.31 1147.21)" fill="#157B61"/>
<path fill-rule="evenodd" clip-rule="evenodd" d="M669.767 820.711C669.717 820.87 669.666 821.029 669.616 821.188C589.99 1076.65 732.532 1348.29 987.991 1427.92C988.15 1427.97 988.31 1428.01 988.469 1428.06L988.225 1428.84L755.897 1653.91C434.147 1478.53 269.996 1095.12 383.207 731.915C383.257 731.756 383.307 731.597 383.357 731.438L669.767 820.711Z" fill="#33AC8F"/>
<path d="M1365.91 215.45C952.276 86.519 512.436 317.321 383.505 730.96C383.455 731.119 383.406 731.278 383.357 731.438L669.767 820.711C669.816 820.552 669.864 820.393 669.914 820.233C749.54 564.774 1021.18 422.233 1276.64 501.859C1276.8 501.909 1276.96 501.96 1277.12 502.01L1366.39 215.6C1366.23 215.55 1366.07 215.499 1365.91 215.45Z" fill="#45A638"/>
<circle cx="1315.14" cy="356.396" r="150" transform="rotate(0.641652 1315.14 356.396)" fill="#2F8205"/>
<circle cx="529.67" cy="763.051" r="150" transform="rotate(0.641652 529.67 763.051)" fill="#034203"/>
</g>
</svg>