<svg width="403" height="409" viewBox="0 0 403 409" fill="none" xmlns="http://www.w3.org/2000/svg">
<path d="M194.536 0.148984C293.571 -3.60039 379.662 63.7941 403 156.672L402.325 157.076L321.249 157.075C301.281 109.163 253.047 76.2044 198.439 78.2714C198.395 78.2728 198.352 78.2739 198.309 78.2753L194.406 0.152812C194.449 0.151448 194.493 0.150204 194.536 0.148984Z" fill="#3EAB6E"/>
<path d="M214.704 408.846C101.961 413.117 5.992 325.18 0.289191 212.417L78.3846 209.46C81.9331 279.079 141.188 333.359 210.801 330.724C210.844 330.723 210.889 330.721 210.932 330.719L214.832 408.842C214.79 408.844 214.748 408.847 214.704 408.846Z" fill="#116B99"/>
<path d="M0.259359 212.18C-5.37664 99.353 81.4864 4.42567 194.272 0.156356C194.315 0.153995 194.359 0.152622 194.402 0.151254L198.304 78.2754C198.261 78.2767 198.217 78.2781 198.174 78.2795C128.519 80.9161 74.8734 139.542 78.3547 209.223C78.3562 209.267 78.3586 209.311 78.3618 209.353L0.266451 212.31C0.264937 212.266 0.261722 212.223 0.259359 212.18Z" fill="#3597CB"/>
<path d="M249.048 379.605C243.894 400.505 222.717 413.066 201.75 407.66C180.782 402.254 167.962 380.927 173.117 360.027C178.271 339.126 199.447 326.566 220.415 331.972C241.382 337.378 254.202 358.705 249.048 379.605Z" fill="#012C67"/>
<path d="M77.1054 218.813C71.9506 239.714 50.7746 252.274 29.8073 246.867C8.83902 241.461 -3.98085 220.135 1.17406 199.234C6.32799 178.334 27.5039 165.773 48.4711 171.179C69.4396 176.587 82.2593 197.912 77.1054 218.813Z" fill="#043F7B"/>
<path d="M230.834 48.9004C225.68 69.8008 204.504 82.3614 183.536 76.9551C162.568 71.5479 149.748 50.2223 154.902 29.3209C160.057 8.42037 181.233 -4.14024 202.2 1.2671C223.169 6.67331 235.988 27.9999 230.834 48.9004Z" fill="#0D6E86"/>
</svg>
