<svg width="235" height="245" viewBox="0 0 235 245" fill="none" xmlns="http://www.w3.org/2000/svg">
<path d="M232.548 64.7774C200.031 5.1668 125.004 -17.3705 64.9413 14.4121L87.4658 55.7031C124.557 36.0949 170.873 50.0153 190.952 86.8212C190.964 86.8435 190.977 86.8676 190.989 86.8902L232.585 64.845C232.573 64.8224 232.561 64.7998 232.548 64.7774Z" fill="#116B99"/>
<path d="M64.821 14.4659C4.74638 46.3027 -17.583 120.454 14.9476 180.086C14.9598 180.11 14.9725 180.132 14.9852 180.155L56.5821 158.111C56.5694 158.088 56.5567 158.065 56.544 158.042C36.4533 121.214 50.244 75.4186 87.3455 55.7569C87.369 55.744 87.3921 55.7319 87.415 55.7205L64.8905 14.4295C64.867 14.4424 64.8442 14.4538 64.821 14.4659Z" fill="#3597CB"/>
<path d="M228.005 91.5405C237.224 82.4382 237.196 67.6197 227.943 58.4434C218.689 49.2666 203.714 49.2066 194.495 58.3094C185.275 67.4117 185.303 82.2296 194.556 91.4064C203.81 100.583 218.785 100.643 228.005 91.5405Z" fill="#012C67"/>
<path d="M56.5812 158.11C56.5939 158.133 56.606 158.156 56.6187 158.179C76.7094 195.007 123.072 208.923 160.173 189.261C160.198 189.249 160.221 189.236 160.243 189.224L160.304 189.336L160.162 239.803C104.95 256.342 43.5864 232.585 15.0222 180.223C15.0097 180.201 14.9976 180.178 14.9849 180.155L56.5812 158.11Z" fill="#3EAB6E"/>
<path d="M91.9082 52.1614C101.128 43.0583 101.1 28.2406 91.8464 19.0643C82.5927 9.88755 67.617 9.82748 58.3979 18.9303C49.1785 28.0326 49.206 42.8505 58.4594 52.0268C67.7136 61.2033 82.6888 61.2636 91.9082 52.1614Z" fill="#043F7B"/>
<path d="M51.4094 183.976C60.6288 174.874 60.6012 160.056 51.3478 150.879C42.0937 141.703 27.1185 141.643 17.8985 150.745C8.67936 159.848 8.70695 174.666 17.9609 183.842C27.2145 193.019 42.1902 193.079 51.4094 183.976Z" fill="#0D6E86"/>
</svg>
