<svg width="225" height="225" viewBox="0 0 225 225" fill="none" xmlns="http://www.w3.org/2000/svg">
<path fill-rule="evenodd" clip-rule="evenodd" d="M134.422 2.38214C184.22 12.6697 219.928 54.3781 225 102.646H181.569C176.934 74.6041 155.518 50.8925 126.185 44.8326C126.162 44.8276 126.138 44.823 126.115 44.818L134.352 2.36748C134.375 2.3725 134.399 2.37717 134.422 2.38214Z" fill="#3EAB6E"/>
<path d="M91.1991 224.425C30.1174 211.808 -9.76671 151.915 2.08452 90.633L44.3948 99.3734C37.0927 137.212 61.7209 174.184 99.4355 181.976C99.4585 181.981 99.4831 181.986 99.5062 181.99L91.2686 224.44C91.2456 224.436 91.2226 224.432 91.1991 224.425Z" fill="#116B99"/>
<path d="M2.09971 90.5022C13.9952 29.1946 73.1743 -10.2723 134.279 2.35133C134.302 2.35579 134.326 2.36081 134.349 2.36583L126.112 44.8165C126.089 44.8115 126.065 44.8065 126.042 44.8015C88.3043 37.0052 51.7562 61.3797 44.41 99.2426C44.4049 99.2666 44.4005 99.2902 44.3966 99.3133L2.08631 90.5729C2.09138 90.5489 2.09524 90.5258 2.09971 90.5022Z" fill="#3597CB"/>
<path d="M113.501 213.272C107.971 223.809 94.9424 227.751 84.4028 222.076C73.8626 216.401 69.8016 203.258 75.3325 192.721C80.863 182.184 93.8906 178.242 104.431 183.917C114.97 189.592 119.031 202.735 113.501 213.272Z" fill="#012C67"/>
<path d="M42.4714 104.225C36.9403 114.763 23.9127 118.704 13.3731 113.029C2.83287 107.354 -1.22813 94.2113 4.30285 83.6743C9.83328 73.1371 22.8609 69.1954 33.4006 74.8701C43.9407 80.5455 48.0018 93.6878 42.4714 104.225Z" fill="#043F7B"/>
<path d="M147.458 33.3508C141.927 43.8879 128.9 47.8297 118.36 42.1549C107.82 36.4795 103.759 23.3372 109.289 12.7996C114.82 2.26251 127.848 -1.67926 138.388 3.99607C148.928 9.6709 152.989 22.8137 147.458 33.3508Z" fill="#0D6E86"/>
</svg>
