<svg width="24" height="24" viewBox="0 0 24 24" fill="none" xmlns="http://www.w3.org/2000/svg">
<path d="M12 0.9375C6.78752 0.9375 2.58752 5.175 2.58752 10.3875V21.225C2.58752 21.5625 2.77502 21.8625 3.07502 22.0125L5.77502 23.175C6.48752 23.475 7.27502 23.6625 8.06252 23.6625C8.88752 23.6625 9.75002 23.475 10.5375 23.1L10.7625 22.9875C11.85 22.4625 13.125 22.4625 14.2125 22.9875C15.825 23.775 17.7375 23.7375 19.35 22.875L21.075 21.975C21.3375 21.825 21.525 21.525 21.525 21.225V10.3875C21.4125 5.175 17.2125 0.9375 12 0.9375ZM19.725 20.7L18.4875 21.375C17.3625 21.975 16.0125 22.0125 14.8875 21.45C13.3125 20.7 11.55 20.7 9.97502 21.45L9.75002 21.5625C8.70002 22.05 7.50002 22.0875 6.45002 21.6375L4.27502 20.6625V10.3875C4.27502 6.1125 7.72502 2.625 12 2.625C16.275 2.625 19.725 6.1125 19.725 10.35V20.7Z" fill="#1E8DCD"/>
<path d="M9.11252 8.0249C8.40002 8.0249 7.83752 8.5874 7.83752 9.2999C7.83752 10.0124 8.40002 10.5749 9.11252 10.5749C9.82502 10.5749 10.3875 10.0124 10.3875 9.2999C10.3875 8.5874 9.82502 8.0249 9.11252 8.0249Z" fill="#1E8DCD"/>
<path d="M14.8875 8.0249C14.175 8.0249 13.6125 8.5874 13.6125 9.2999C13.6125 10.0124 14.175 10.5749 14.8875 10.5749C15.6 10.5749 16.1625 10.0124 16.1625 9.2999C16.1625 8.5874 15.6 8.0249 14.8875 8.0249Z" fill="#1E8DCD"/>
<path d="M12 13.3877C10.95 13.3877 10.0875 13.9502 10.0875 14.6627C10.0875 15.3752 10.95 15.9377 12 15.9377C13.05 15.9377 13.9125 15.3752 13.9125 14.6627C13.9125 13.9502 13.05 13.3877 12 13.3877Z" fill="#1E8DCD"/>
</svg>
