<svg width="54" height="54" viewBox="0 0 54 54" fill="none" xmlns="http://www.w3.org/2000/svg">
<path d="M46.9121 10.0411H43.8746V4.47236C43.8746 3.29111 43.1152 2.19423 42.0184 1.68798C40.9215 1.18173 39.5715 1.43486 38.7277 2.36298L31.0496 10.0411H18.1402C15.2715 10.0411 12.909 12.4036 12.909 15.2724V18.3942H7.00273C4.13398 18.3942 1.77148 20.7567 1.77148 23.6255V38.813C1.77148 41.6817 4.13398 44.0442 7.00273 44.0442H10.1246V49.613C10.1246 50.7942 10.884 51.8911 11.9809 52.3974C12.3184 52.5661 12.7402 52.6505 13.1621 52.6505C13.9215 52.6505 14.6809 52.313 15.2715 51.8067L22.9496 44.1286H35.859C38.7277 44.1286 41.0902 41.7661 41.0902 38.8974V35.7755H46.9965C49.8652 35.7755 52.2277 33.413 52.2277 30.5442V15.3567C52.1434 12.3192 49.7809 10.0411 46.9121 10.0411ZM37.2934 38.7286C37.2934 39.488 36.6184 40.163 35.859 40.163H22.1059C21.5996 40.163 21.0934 40.3317 20.7559 40.7536L13.9215 47.588V42.1036C13.9215 41.0911 13.0777 40.163 11.9809 40.163H7.08711C6.32773 40.163 5.65273 39.488 5.65273 38.7286V23.6255C5.65273 22.8661 6.32773 22.1911 7.08711 22.1911H35.859C36.6184 22.1911 37.2934 22.8661 37.2934 23.6255V38.7286ZM48.3465 30.3755C48.3465 31.1349 47.6715 31.8099 46.9121 31.8099H41.0902V23.6255C41.0902 20.7567 38.7277 18.3942 35.859 18.3942H16.7059V15.2724C16.7059 14.513 17.3809 13.838 18.1402 13.838H31.8934C32.3996 13.838 32.9059 13.6692 33.2434 13.2474L40.0777 6.41298V11.8974C40.0777 12.9099 40.9215 13.838 42.0184 13.838H46.9965C47.7559 13.838 48.4309 14.513 48.4309 15.2724V30.3755H48.3465Z" fill="#1E8DCD"/>
<path d="M10.7994 29.1934H10.715C9.70254 29.1934 8.77441 30.0371 8.77441 31.134C8.77441 32.2309 9.61816 33.0746 10.715 33.0746H10.7994C11.8119 33.0746 12.74 32.2309 12.74 31.134C12.74 30.0371 11.8119 29.1934 10.7994 29.1934Z" fill="#1E8DCD"/>
<path d="M21.2623 29.1934H21.1779C20.1654 29.1934 19.2373 30.0371 19.2373 31.134C19.2373 32.2309 20.0811 33.0746 21.1779 33.0746H21.2623C22.2748 33.0746 23.2029 32.2309 23.2029 31.134C23.2029 30.0371 22.2748 29.1934 21.2623 29.1934Z" fill="#1E8DCD"/>
<path d="M31.7242 29.1934H31.6398C30.6273 29.1934 29.6992 30.0371 29.6992 31.134C29.6992 32.2309 30.543 33.0746 31.6398 33.0746H31.7242C32.7367 33.0746 33.6648 32.2309 33.6648 31.134C33.6648 30.0371 32.8211 29.1934 31.7242 29.1934Z" fill="#1E8DCD"/>
</svg>
