<svg width="52" height="40" viewBox="0 0 52 40" fill="none" xmlns="http://www.w3.org/2000/svg">
<path d="M50.0264 35.1579H49.5116V4.52632C49.5116 2.10526 47.8812 0 45.8218 0H41.1881C39.2145 0 37.4984 2 37.4984 4.52632V35.1579H32.0066V10.4211C32.0066 8 30.3762 5.89474 28.3168 5.89474H23.6832C21.7096 5.89474 19.9934 7.89474 19.9934 10.4211V35.1579H14.4158V17.2632C14.4158 14.8421 12.7855 12.7368 10.7261 12.7368H6.09241C4.11881 12.7368 2.40264 14.7368 2.40264 17.2632V35.1579H1.9736C0.943894 35.1579 0 36.2105 0 37.5789C0 38.9474 0.858086 40 1.9736 40H50.0264C51.0561 40 52 38.9474 52 37.5789C52 36.2105 51.0561 35.1579 50.0264 35.1579ZM6.34984 35.1579V17.5789H10.5545V35.1579H6.34984ZM23.8548 35.1579V10.7368H28.0594V35.1579H23.8548ZM41.4455 35.1579V4.84211H45.6502V35.1579H41.4455Z" fill="#1E8DCD"/>
</svg>
