<svg width="58" height="58" viewBox="0 0 58 58" fill="none" xmlns="http://www.w3.org/2000/svg">
<path d="M54.0125 25.466C53.0156 24.2879 51.8375 23.291 50.4781 22.6566C51.7469 21.3879 52.4719 19.666 52.4719 17.7629C52.4719 13.9566 49.3906 10.8754 45.5844 10.8754C41.7781 10.8754 38.6969 13.9566 38.6969 17.7629C38.6969 19.666 39.5125 21.3879 40.6906 22.6566C39.6031 23.2004 38.6969 23.9254 37.7906 24.8316C36.7031 23.7441 35.4344 22.8379 33.9844 22.2035C35.7063 20.7535 36.7938 18.5785 36.7938 16.2223C36.7938 11.8723 33.2594 8.33789 28.9094 8.33789C24.5594 8.33789 21.025 11.8723 21.025 16.2223C21.025 18.6691 22.1125 20.7535 23.8344 22.2035C22.475 22.8379 21.2063 23.6535 20.0281 24.8316C19.1219 23.9254 18.2156 23.2004 17.1281 22.6566C18.3969 21.3879 19.1219 19.666 19.1219 17.7629C19.1219 13.9566 16.0406 10.8754 12.2344 10.8754C8.42813 10.8754 5.34688 13.9566 5.34688 17.7629C5.34688 19.666 6.1625 21.3879 7.34063 22.6566C6.07188 23.291 4.80312 24.2879 3.80625 25.466C1.72187 27.9129 0.54375 31.3566 0.453125 35.0723C0.453125 35.8879 0.90625 36.6129 1.54063 36.8848C2.80938 37.5191 7.25 39.6035 12.1438 39.6035C13.5031 39.6035 14.9531 39.4223 16.3125 39.1504C16.8563 39.4223 17.5813 39.7848 18.5781 40.1473C19.1219 45.4941 23.5625 49.7535 29 49.7535C34.3469 49.7535 38.7875 45.4941 39.15 40.2379C40.2375 39.7848 41.0531 39.4223 41.5063 39.1504C42.9563 39.4223 44.3156 39.6035 45.675 39.6035C50.9313 39.6035 55.1906 37.5191 56.2781 36.8848C56.9125 36.5223 57.3656 35.7973 57.3656 35.0723C57.275 31.3566 56.0969 27.9129 54.0125 25.466ZM45.5844 14.9535C47.125 14.9535 48.3938 16.2223 48.3938 17.7629C48.3938 19.3035 47.125 20.5723 45.5844 20.5723C44.0438 20.5723 42.775 19.3035 42.775 17.7629C42.8656 16.2223 44.0438 14.9535 45.5844 14.9535ZM29 12.3254C31.0844 12.3254 32.8063 14.0473 32.8063 16.1316C32.8063 18.216 31.0844 19.9379 29 19.9379C26.9156 19.9379 25.1938 18.216 25.1938 16.1316C25.1938 14.0473 26.9156 12.3254 29 12.3254ZM12.4156 14.9535C13.9563 14.9535 15.225 16.2223 15.225 17.7629C15.225 19.3035 13.9563 20.5723 12.4156 20.5723C10.875 20.5723 9.60625 19.3035 9.60625 17.7629C9.60625 16.2223 10.875 14.9535 12.4156 14.9535ZM4.80313 33.8035C5.075 31.5379 5.89063 29.5441 7.06875 28.0941C8.42813 26.4629 10.3313 25.5566 12.325 25.5566C14.3188 25.5566 16.1313 26.4629 17.5813 28.0941C16.4031 30.1785 15.5875 32.6254 15.3156 35.2535C14.3188 35.4348 13.3219 35.5254 12.325 35.5254C9.425 35.5254 6.43438 34.5285 4.80313 33.8035ZM29 45.6754C25.6469 45.6754 22.9281 42.9566 22.9281 39.6035C22.9281 36.2504 25.6469 33.5316 29 33.5316C32.3531 33.5316 35.0719 36.2504 35.0719 39.6035C35.0719 42.9566 32.3531 45.6754 29 45.6754ZM29 29.4535C24.65 29.4535 21.025 32.1723 19.575 35.9785C19.4844 35.9785 19.4844 35.8879 19.3938 35.8879C19.6656 33.2598 20.3906 30.9941 21.75 29.091C21.9313 28.8191 22.1125 28.6379 22.2938 28.366C24.1063 26.2816 26.4625 25.1035 29 25.1035C31.5375 25.1035 33.9844 26.2816 35.7063 28.366C35.8875 28.6379 36.0688 28.8191 36.25 29.091C36.4313 29.3629 36.6125 29.6348 36.7031 29.9066C36.7938 29.9973 36.7938 30.0879 36.8844 30.1785C36.975 30.3598 37.0656 30.541 37.1563 30.7223C37.2469 30.8129 37.2469 30.9035 37.3375 31.0848C37.4281 31.266 37.5188 31.4473 37.6094 31.6285C37.7 31.7191 37.7 31.9004 37.7906 31.991C37.8813 32.1723 37.8813 32.3535 37.9719 32.5348C37.9719 32.6254 38.0625 32.8066 38.0625 32.8973C38.1531 33.0785 38.1531 33.2598 38.2438 33.441C38.2438 33.5316 38.3344 33.7129 38.3344 33.8035C38.3344 33.9848 38.425 34.2566 38.425 34.4379C38.425 34.5285 38.5156 34.7098 38.5156 34.8004C38.5156 35.0723 38.6063 35.2535 38.6063 35.5254C38.6063 35.616 38.6063 35.7066 38.6063 35.7973V35.8879C38.5156 35.8879 38.5156 35.9785 38.425 35.9785C37.0656 32.2629 33.35 29.4535 29 29.4535ZM45.5844 35.5254C44.6781 35.5254 43.6813 35.4348 42.5938 35.2535C42.5938 35.1629 42.5938 35.1629 42.5938 35.0723C42.5031 34.5285 42.4125 34.0754 42.3219 33.5316C42.3219 33.3504 42.2313 33.2598 42.2313 33.0785C42.1406 32.5348 41.9594 31.991 41.7781 31.4473C41.5969 30.9035 41.4156 30.3598 41.1438 29.9066C41.0531 29.816 41.0531 29.6348 40.9625 29.5441C40.7813 29.091 40.5094 28.6379 40.3281 28.2754C40.3281 28.1848 40.2375 28.1848 40.2375 28.0941C41.5969 26.4629 43.5 25.5566 45.4938 25.5566C47.4875 25.5566 49.3906 26.4629 50.75 28.0941C52.0188 29.6348 52.8344 31.6285 53.0156 33.8941C51.6563 34.5285 48.8469 35.5254 45.5844 35.5254Z" fill="#1E8DCD"/>
<path d="M31.1752 37.6094H30.9939V37.4281C30.9939 36.3406 30.0877 35.3438 28.9096 35.3438C27.8221 35.3438 26.8252 36.25 26.8252 37.4281V37.6094H26.6439C25.5564 37.6094 24.5596 38.5156 24.5596 39.6937C24.5596 40.8719 25.4658 41.7781 26.6439 41.7781H26.8252V41.9594C26.8252 43.0469 27.7314 44.0437 28.9096 44.0437C29.9971 44.0437 30.9939 43.1375 30.9939 41.9594V41.6875H31.1752C32.2627 41.6875 33.2596 40.7813 33.2596 39.6031C33.2596 38.425 32.2627 37.6094 31.1752 37.6094Z" fill="#1E8DCD"/>
</svg>
