<svg width="54" height="54" viewBox="0 0 54 54" fill="none" xmlns="http://www.w3.org/2000/svg">
<path d="M42.6096 33.75C41.5971 33.75 40.6689 34.5937 40.6689 35.6906V43.1156C40.6689 44.1281 41.5127 45.0563 42.6096 45.0563C43.7064 45.0563 44.5502 44.2125 44.5502 43.1156V35.6906C44.5502 34.5937 43.6221 33.75 42.6096 33.75Z" fill="#1E8DCD"/>
<path d="M42.6098 32.2313C43.5883 32.2313 44.3816 31.438 44.3816 30.4594C44.3816 29.4808 43.5883 28.6875 42.6098 28.6875C41.6312 28.6875 40.8379 29.4808 40.8379 30.4594C40.8379 31.438 41.6312 32.2313 42.6098 32.2313Z" fill="#1E8DCD"/>
<path d="M47.3346 9.02734H6.66582C3.79707 9.02734 1.43457 11.3898 1.43457 14.2586V39.8242C1.43457 42.693 3.79707 45.0555 6.66582 45.0555H29.1096C30.1221 45.0555 31.0502 44.2117 31.0502 43.1148C31.0502 42.018 30.2064 41.1742 29.1096 41.1742H6.66582C5.90645 41.1742 5.23145 40.4992 5.23145 39.7398V15.1867L24.1314 26.6617C24.9752 27.168 25.9877 27.4211 27.0002 27.4211C28.0127 27.4211 28.9408 27.168 29.8689 26.6617L48.7689 15.1867V25.9867C48.7689 26.9992 49.6127 27.9273 50.7096 27.9273C51.8064 27.9273 52.6502 27.0836 52.6502 25.9867V14.1742C52.5658 11.3055 50.2033 9.02734 47.3346 9.02734ZM27.8439 23.3711C27.3377 23.7086 26.6627 23.7086 26.1564 23.3711L8.69082 12.8242H45.2252L27.8439 23.3711Z" fill="#1E8DCD"/>
</svg>
