<svg width="54" height="54" viewBox="0 0 54 54" fill="none" xmlns="http://www.w3.org/2000/svg">
<path d="M26.9998 1.51953C17.3811 1.51953 8.94355 6.91953 4.64043 14.8508C4.21855 15.1039 3.96543 15.5258 3.96543 16.032C2.3623 19.407 1.51855 23.1195 1.51855 27.0008C1.51855 28.857 1.6873 30.6289 2.10918 32.4008V32.4852C2.10918 32.8227 2.19355 33.1602 2.3623 33.4133C5.23105 44.382 15.1873 52.5664 27.0842 52.5664C41.1748 52.5664 52.6498 41.0914 52.6498 27.0008C52.6498 12.9102 41.0904 1.51953 26.9998 1.51953ZM48.4311 30.5445H44.8873C44.7186 30.5445 44.3811 30.207 44.3811 29.6164V19.0695C44.3811 18.4789 44.7186 18.1414 44.9717 18.1414H46.5748C46.6592 18.1414 46.8279 18.1414 46.9123 18.1414C48.1779 20.8414 48.8529 23.8789 48.8529 27.0852C48.7686 28.182 48.5998 29.4477 48.4311 30.5445ZM26.9998 5.31641C34.2561 5.31641 40.6686 8.86016 44.6342 14.3445C43.2842 14.4289 42.1029 15.1883 41.3436 16.3695H32.5686L31.8092 15.6945C27.8436 12.2352 21.9373 11.8977 17.8029 14.9352C16.1998 16.1164 15.0186 17.5508 14.3436 18.3945H13.6686C13.4998 16.1164 11.7279 14.3445 9.53418 14.3445H9.4498C13.3311 8.86016 19.7436 5.31641 26.9998 5.31641ZM39.2342 28.5195C38.3061 28.5195 37.4623 28.857 36.7873 29.532C36.7029 29.6164 36.6186 29.7008 36.5342 29.7852L29.3623 40.5008L27.5061 39.9945L26.1561 37.8008C25.9029 37.3789 25.4811 37.1258 25.0592 36.957L23.1186 36.4508L22.2748 34.5945C22.0217 34.0883 21.5998 33.7508 21.0936 33.582L18.9842 32.9914L18.7311 32.6539L25.1436 25.9883C25.5654 25.5664 26.2404 25.482 26.7467 25.9039L26.9998 26.157C29.1092 27.7602 31.9779 27.507 33.8342 25.5664L35.0154 24.3008C35.7748 23.457 36.1967 22.3602 36.1123 21.2633C36.1123 20.9258 36.0279 20.5883 35.9436 20.1664H40.4998V28.6039H39.2342V28.5195ZM16.4529 29.4477C15.6092 28.9414 14.7654 28.6883 13.8373 28.6039V22.1914H14.7654C15.8623 22.1914 16.7904 21.6852 17.3811 20.8414C17.8029 20.2508 18.7311 18.9852 20.0811 18.057C22.7811 16.1164 26.6623 16.2852 29.2779 18.6477L31.6404 20.757C31.8936 21.0102 32.0623 21.2633 32.1467 21.5164C32.1467 21.6008 32.1467 21.6852 32.0623 21.7695L30.8811 23.0352C30.4592 23.5414 29.6998 23.6258 29.1092 23.2039L28.8561 22.9508C26.8311 21.432 24.1311 21.6008 22.2748 23.457L16.4529 29.4477ZM5.31543 27.0008C5.31543 23.7945 5.99043 20.8414 7.25605 18.1414H9.53418C9.70293 18.1414 10.0404 18.4789 10.0404 19.0695V29.7008C10.0404 30.2914 9.70293 30.6289 9.4498 30.6289H5.56855C5.3998 29.4477 5.31543 28.182 5.31543 27.0008ZM26.9998 48.7695C17.6342 48.7695 9.61856 42.7789 6.58105 34.4258H9.4498C10.9686 34.4258 12.2342 33.582 12.9936 32.4008H13.1623C13.4998 32.4008 13.8373 32.4852 14.1748 32.6539C14.1748 33.0758 14.3436 33.4133 14.5123 33.7508L16.1154 35.9445C16.3686 36.282 16.7061 36.5352 17.1279 36.6195L19.0686 37.1258L19.9123 38.982C20.1654 39.4883 20.5873 39.8258 21.0936 39.9945L23.2029 40.5852L24.5529 42.7789C24.8061 43.2008 25.2279 43.4539 25.6498 43.6227L29.5311 44.7195C29.6998 44.8039 29.8686 44.8039 30.0373 44.8039C30.6279 44.8039 31.2186 44.4664 31.6404 43.9602L39.3186 32.5695H41.1748C41.9342 33.8352 43.2842 34.5945 44.7186 34.5945H47.3342C44.3811 42.6945 36.3654 48.7695 26.9998 48.7695Z" fill="#1E8DCD"/>
</svg>
