<svg width="58" height="58" viewBox="0 0 58 58" fill="none" xmlns="http://www.w3.org/2000/svg">
<path d="M53.4684 41.5961C52.9731 39.8493 51.8106 38.3674 50.232 37.4705C48.6534 36.5735 46.7853 36.3334 45.0312 36.802C41.8321 37.7083 37.4459 39.0495 34.1562 40.0011C34.4573 39.0486 34.4221 38.0217 34.0565 37.092C33.2228 35.0167 30.9118 34.0923 28.9815 34.0923H19.9371C19.0126 34.0389 18.1435 33.6335 17.5084 32.9595C16.5442 32.0742 15.283 31.5826 13.974 31.582H6.62432C5.07713 31.6153 3.60629 32.2608 2.53432 33.377C1.46234 34.4931 0.876729 35.9888 0.905879 37.5361V49.1905C0.887831 49.9732 1.02432 50.7517 1.30754 51.4816C1.59076 52.2115 2.01514 52.8784 2.5564 53.444C3.09766 54.0097 3.74516 54.4631 4.46185 54.7782C5.17854 55.0933 5.95033 55.264 6.73307 55.2805H15.5599C16.6936 55.2752 17.8003 54.9346 18.7409 54.3017L18.8496 54.3561C21.4199 55.7732 24.3064 56.5182 27.2415 56.522C28.9873 56.5298 30.7238 56.2669 32.389 55.7427L48.7921 50.7492H48.9009C49.8019 50.4617 50.6369 49.9982 51.3575 49.3857C52.0782 48.7732 52.6701 48.0238 53.0992 47.1809C53.5282 46.3381 53.7857 45.4185 53.8569 44.4754C53.928 43.5323 53.8114 42.5844 53.5137 41.6867L53.4684 41.5961ZM6.73307 51.6555C6.42625 51.6393 6.12567 51.5625 5.84863 51.4297C5.5716 51.2968 5.32359 51.1105 5.1189 50.8813C4.9142 50.6522 4.75686 50.3849 4.65594 50.0947C4.55502 49.8045 4.51252 49.4972 4.53088 49.1905V37.5361C4.50362 36.9506 4.708 36.378 5.0998 35.9421C5.49159 35.5062 6.03928 35.2421 6.62432 35.207H13.9649C14.3698 35.207 14.7592 35.3628 15.0524 35.642C15.3413 35.8941 15.6439 36.1301 15.9587 36.3489V51.583C15.8322 51.5963 15.7046 51.5963 15.5781 51.583L6.73307 51.6555ZM47.6774 47.2873L31.3106 52.2536C29.9942 52.6678 28.6215 52.8757 27.2415 52.8698C24.9105 52.8657 22.6187 52.2702 20.5806 51.1389L19.5656 50.6042V37.6992H19.9281H28.9996C29.3229 37.6685 29.6486 37.7187 29.9476 37.8453C30.2466 37.9719 30.5095 38.1708 30.7124 38.4242C30.8574 38.7958 30.6037 39.9014 28.7006 41.7139L27.6584 42.7017L28.3743 43.9342C29.1537 45.3117 29.1537 45.3117 38.3068 42.593C42.1946 41.4602 46.0734 40.3002 46.0734 40.3002C46.9126 40.1038 47.7953 40.2419 48.5345 40.685C49.2738 41.1282 49.8114 41.8418 50.0337 42.6745C50.196 43.1296 50.2634 43.6131 50.2315 44.0952C50.1997 44.5773 50.0693 45.0478 49.8485 45.4776C49.6277 45.9073 49.3211 46.2872 48.9477 46.5938C48.5743 46.9004 48.1419 47.1272 47.6774 47.2602V47.2873Z" fill="#1E8DCD"/>
<path d="M57.0208 9.28023C56.9639 8.5957 56.6673 7.95321 56.1832 7.46584C55.6992 6.97848 55.0587 6.67749 54.3746 6.61586C52.118 6.44367 47.8949 6.61586 44.9405 9.52492C44.4435 10.0194 44.0056 10.5698 43.6355 11.1652C43.4026 8.94841 42.5163 6.85078 41.089 5.13867C38.3702 2.07555 33.839 1.55898 31.4283 1.51367C30.694 1.52108 29.9895 1.80509 29.4553 2.30902C28.9211 2.81296 28.5966 3.49977 28.5465 4.23242C28.3561 6.8243 28.4468 11.6365 31.1474 14.6634C33.3858 17.1737 36.8296 17.6812 39.3036 17.6812C39.909 17.6854 40.5142 17.6551 41.1161 17.5905V30.8943C41.1161 31.375 41.3071 31.836 41.647 32.1759C41.9869 32.5158 42.4479 32.7068 42.9286 32.7068C43.4093 32.7068 43.8704 32.5158 44.2103 32.1759C44.5502 31.836 44.7411 31.375 44.7411 30.8943V22.738C47.3149 22.6927 51.6105 22.1852 54.284 19.5299C57.1658 16.5755 57.2383 11.8359 57.0208 9.28023ZM40.1011 14.0652C38.2071 14.183 35.3161 13.9565 33.8118 12.2527C32.1261 10.3768 31.9993 6.87867 32.0808 5.1568C33.8118 5.26555 36.7299 5.72773 38.343 7.53117C39.9561 9.33461 40.1736 12.3615 40.1011 14.0652ZM51.6558 16.9924C49.9068 18.7324 46.6986 19.0949 44.7774 19.1493C45.0221 17.1918 45.6836 13.893 47.4961 12.0896C49.1093 10.4855 51.5561 10.1955 53.133 10.1955H53.4683C53.5227 11.8359 53.4683 15.189 51.6558 16.9924Z" fill="#1E8DCD"/>
</svg>
