<svg width="141" height="141" viewBox="0 0 141 141" fill="none" xmlns="http://www.w3.org/2000/svg">
<rect width="141" height="141" rx="35.086" fill="#2878B7"/>
<path d="M98.6997 73.1244V92.5673H87.3185V74.31C87.3185 69.8049 85.6588 66.7225 81.6279 66.7225C78.5455 66.7225 76.6486 68.8565 75.9373 70.7534C75.7002 71.4647 75.4631 72.4131 75.4631 73.5986V92.5673H64.0819C64.0819 92.5673 64.319 61.7433 64.0819 58.6609H75.4631V63.403C76.8858 61.0319 79.731 57.7124 85.6587 57.7124C93.0091 57.7124 98.6997 62.6917 98.6997 73.1244ZM52.2265 42.3004C48.4328 42.3004 45.8246 44.9086 45.8246 48.2281C45.8246 51.5476 48.1957 54.1558 51.9894 54.1558C56.0203 54.1558 58.3913 51.5476 58.3913 48.2281C58.6284 44.6715 56.2574 42.3004 52.2265 42.3004ZM46.5359 92.5673H57.9171V58.6609H46.5359V92.5673Z" fill="white"/>
</svg>
