<svg width="139" height="141" viewBox="0 0 139 141" fill="none" xmlns="http://www.w3.org/2000/svg">
<rect width="139" height="140.759" rx="34.6474" fill="#F40000"/>
<path fill-rule="evenodd" clip-rule="evenodd" d="M39.137 95.2124C37.7739 94.804 36.5302 94.0775 35.5108 93.0941C34.4914 92.1108 33.7262 90.8995 33.2798 89.5624C30.7291 82.6516 29.9733 53.7944 34.8858 48.0976C36.5208 46.2445 38.8292 45.1035 41.3099 44.9224C54.4887 43.5216 95.2061 43.7084 99.8824 45.3894C101.198 45.8112 102.399 46.5218 103.397 47.4679C104.395 48.4141 105.164 49.5712 105.645 50.8526C108.432 57.9969 108.527 83.959 105.267 90.8231C104.403 92.6099 102.955 94.0572 101.158 94.9322C96.2452 97.3604 45.6556 97.3137 39.137 95.2124ZM60.0625 81.671L83.6805 69.5304L60.0625 57.2965V81.671Z" fill="white"/>
</svg>
