<svg width="141" height="141" viewBox="0 0 141 141" fill="none" xmlns="http://www.w3.org/2000/svg">
<rect width="141" height="141" rx="35.086" fill="url(#paint0_radial_262_658)"/>
<path d="M70.5001 41.6205C79.8435 41.6205 81.1176 41.6205 84.9398 41.6205C88.3374 41.6205 90.0362 42.4699 91.3103 42.8946C93.0091 43.744 94.2832 44.1687 95.5573 45.4428C96.8314 46.7169 97.6808 47.991 98.1055 49.6898C98.5302 50.9639 98.9549 52.6627 99.3796 56.0603C99.3796 59.8826 99.3796 60.732 99.3796 70.5001C99.3796 80.2682 99.3796 81.1176 99.3796 84.9398C99.3796 88.3374 98.5302 90.0362 98.1055 91.3103C97.2561 93.0091 96.8314 94.2832 95.5573 95.5573C94.2832 96.8314 93.0091 97.6808 91.3103 98.1055C90.0362 98.5302 88.3374 98.9549 84.9398 99.3796C81.1176 99.3796 80.2682 99.3796 70.5001 99.3796C60.732 99.3796 59.8826 99.3796 56.0603 99.3796C52.6627 99.3796 50.9639 98.5302 49.6898 98.1055C47.991 97.2561 46.7169 96.8314 45.4428 95.5573C44.1687 94.2832 43.3193 93.0091 42.8946 91.3103C42.4699 90.0362 42.0452 88.3374 41.6205 84.9398C41.6205 81.1176 41.6205 80.2682 41.6205 70.5001C41.6205 60.732 41.6205 59.8826 41.6205 56.0603C41.6205 52.6627 42.4699 50.9639 42.8946 49.6898C43.744 47.991 44.1687 46.7169 45.4428 45.4428C46.7169 44.1687 47.991 43.3193 49.6898 42.8946C50.9639 42.4699 52.6627 42.0452 56.0603 41.6205C59.8826 41.6205 61.1567 41.6205 70.5001 41.6205ZM70.5001 35.25C60.732 35.25 59.8826 35.25 56.0603 35.25C52.238 35.25 49.6898 36.0994 47.5663 36.9488C45.4428 37.7982 43.3193 39.0723 41.1958 41.1958C39.0723 43.3193 38.2229 45.0181 36.9488 47.5663C36.0994 49.6898 35.6747 52.238 35.25 56.0603C35.25 59.8826 35.25 61.1567 35.25 70.5001C35.25 80.2682 35.25 81.1176 35.25 84.9398C35.25 88.7621 36.0994 91.3103 36.9488 93.4338C37.7982 95.5573 39.0723 97.6808 41.1958 99.8043C43.3193 101.928 45.0181 102.777 47.5663 104.051C49.6898 104.901 52.238 105.325 56.0603 105.75C59.8826 105.75 61.1567 105.75 70.5001 105.75C79.8435 105.75 81.1176 105.75 84.9398 105.75C88.7621 105.75 91.3103 104.901 93.4338 104.051C95.5573 103.202 97.6808 101.928 99.8043 99.8043C101.928 97.6808 102.777 95.982 104.051 93.4338C104.901 91.3103 105.325 88.7621 105.75 84.9398C105.75 81.1176 105.75 79.8435 105.75 70.5001C105.75 61.1567 105.75 59.8826 105.75 56.0603C105.75 52.238 104.901 49.6898 104.051 47.5663C103.202 45.4428 101.928 43.3193 99.8043 41.1958C97.6808 39.0723 95.982 38.2229 93.4338 36.9488C91.3103 36.0994 88.7621 35.6747 84.9398 35.25C81.1176 35.25 80.2682 35.25 70.5001 35.25Z" fill="white"/>
<path d="M70.5001 52.238C60.3073 52.238 52.238 60.3073 52.238 70.5001C52.238 80.6928 60.3073 88.7621 70.5001 88.7621C80.6928 88.7621 88.7621 80.6928 88.7621 70.5001C88.7621 60.3073 80.6928 52.238 70.5001 52.238ZM70.5001 82.3916C64.1296 82.3916 58.6085 77.2953 58.6085 70.5001C58.6085 64.1296 63.7049 58.6085 70.5001 58.6085C76.8706 58.6085 82.3916 63.7049 82.3916 70.5001C82.3916 76.8706 76.8706 82.3916 70.5001 82.3916Z" fill="white"/>
<path d="M89.1868 56.0603C91.5324 56.0603 93.4338 54.1588 93.4338 51.8133C93.4338 49.4677 91.5324 47.5663 89.1868 47.5663C86.8413 47.5663 84.9398 49.4677 84.9398 51.8133C84.9398 54.1588 86.8413 56.0603 89.1868 56.0603Z" fill="white"/>
<defs>
<radialGradient id="paint0_radial_262_658" cx="0" cy="0" r="1" gradientUnits="userSpaceOnUse" gradientTransform="translate(143.837 2.86407) scale(325.611)">
<stop stop-color="#F9ED32"/>
<stop offset="0.36" stop-color="#EE2A7B"/>
<stop offset="0.44" stop-color="#D22A8A"/>
<stop offset="0.6" stop-color="#8B2AB2"/>
<stop offset="0.83" stop-color="#1B2AF0"/>
<stop offset="0.88" stop-color="#002AFF"/>
</radialGradient>
</defs>
</svg>
